<svg width="23" height="22" viewBox="0 0 23 22" fill="none" xmlns="http://www.w3.org/2000/svg">
<circle cx="11.75" cy="11" r="10.25" stroke="black" stroke-width="1.5"/>
<path d="M17.6001 11C17.6001 13.925 16.8872 16.5368 15.7739 18.3923C14.6517 20.2627 13.2057 21.25 11.7501 21.25C10.2946 21.25 8.84863 20.2627 7.72636 18.3923C6.61305 16.5368 5.90015 13.925 5.90015 11C5.90015 8.07499 6.61305 5.46321 7.72636 3.6077C8.84863 1.73725 10.2946 0.75 11.7501 0.75C13.2057 0.75 14.6517 1.73725 15.7739 3.6077C16.8872 5.46321 17.6001 8.07499 17.6001 11Z" stroke="black" stroke-width="1.5"/>
<path d="M11.75 1.09985V21.4499" stroke="black" stroke-width="1.5"/>
<path d="M1.84985 8.25H21.6499" stroke="black" stroke-width="1.5"/>
<path d="M2.94971 15.4001L20.5497 15.4001" stroke="black" stroke-width="1.5"/>
</svg>
